<svg id="Lager_1" data-name="Lager 1" xmlns="http://www.w3.org/2000/svg" viewBox="0 0 113.5 84.17"><defs><style>.cls-1{fill:#f1f7db;}</style></defs><title>Rityta 2</title><path class="cls-1" d="M10.26,70.89c14.91-.74,29.83-1.1,46.4,5H57c16.57-5.89,31.3-5.71,46.4-5,.18,0,.37,0,.37-.18.18-.18.18-.18.18-.37V2a.49.49,0,0,0-.55-.55c-15.1-.74-29.83-1.1-46.58,5C40.09.55,25.36.74,10.26,1.47A.49.49,0,0,0,9.71,2V70.33c0,.18,0,.37.18.37C10.07,70.89,10.07,70.89,10.26,70.89ZM57.39,7.37c16.2-5.71,30.75-5.52,45.48-4.79v67.2c-14.73-.74-29.27-.92-45.48,4.79ZM10.81,2.58c14.73-.74,29.27-.92,45.48,4.79v67.2a96.37,96.37,0,0,0-32.77-5.16c-4.23,0-8.47.18-12.7.37Zm101.26,9.94v69a.49.49,0,0,1-.55.55H2.16a.49.49,0,0,1-.55-.55v-69A.49.49,0,0,1,2.16,12a.49.49,0,0,1,.55.55V81H111V12.52a.49.49,0,0,1,.55-.55A.59.59,0,0,1,112.07,12.52Z"/></svg>