<?xml version="1.0" encoding="UTF-8" standalone="no"?>
<!DOCTYPE svg PUBLIC "-//W3C//DTD SVG 1.1//EN" "http://www.w3.org/Graphics/SVG/1.1/DTD/svg11.dtd">
<svg width="100%" height="100%" viewBox="0 0 713 555" version="1.1" xmlns="http://www.w3.org/2000/svg" xmlns:xlink="http://www.w3.org/1999/xlink" xml:space="preserve" xmlns:serif="http://www.serif.com/" style="fill-rule:evenodd;clip-rule:evenodd;stroke-linejoin:round;stroke-miterlimit:2;">
    <g transform="matrix(7.11915,0,0,7.11915,0.5,-54.1608)">
        <path d="M99.942,13L98.077,10L97.077,10C93.645,11 89.848,12.388 85.847,12.388C81.846,12.388 74.442,10.333 74.442,10.333C69.412,8.169 66.44,7.678 61.936,7.678C57.461,7.678 53.24,8.68 49.502,10.393C45.766,8.68 41.543,7.718 37.068,7.718C32.565,7.718 29.163,8.393 23.558,10.677C23.558,10.677 17.159,12.606 13.158,12.606C9.157,12.606 5.359,11.239 1.928,10.278L0.057,13L0,13L0,83.251C3.846,84.361 6.332,85.164 9.758,85.164C13.288,85.164 17.654,84.27 23.375,81.875C27.141,80.281 30.159,80.051 34.628,80.051C40.021,80.051 45.061,82 49.362,84L49.605,84C53.908,82 58.947,80.004 64.34,80.004C68.632,80.004 72.722,80.772 76.374,82.25C80.749,84.438 85.129,85.405 89.989,85.405C93.375,85.405 95.191,84.691 99.999,83.594L99.999,13L99.942,13ZM35.136,77.026C30.822,77.026 26.755,77.907 23.117,79.507C18.344,81.28 14.69,82.62 11.281,82.62C7.972,82.621 5,81.783 2,80.669L2,15.281L1.927,11.156C5.358,12.156 9.156,13.368 13.157,13.368C17.158,13.368 24.038,11.484 24.038,11.484C28.862,9.501 32.544,8.642 37.048,8.642C41.342,8.643 45,9.6 49,11.185L49,80.483C45,78.625 40.202,77.026 35.136,77.026ZM98,11L98,81.015C94,82.116 91.746,82.735 88.475,82.735C83.784,82.735 80.5,81.438 75.423,79.321C71.897,77.838 68.003,77.018 63.859,77.018C59.2,77.018 55.001,78.376 51.001,80.039L51.001,10.762C54.001,9.437 58.055,8.695 61.956,8.695C66.46,8.695 69.902,9.542 75.131,11.645C75.131,11.645 81.851,13.368 85.853,13.368C89.855,13.368 93.646,12 97.077,11L98,11Z" style="fill:rgb(242,242,242);fill-rule:nonzero;stroke:rgb(33,96,164);stroke-width:0.14px;"/>
    </g>
</svg>
