<?xml version="1.0" encoding="UTF-8" standalone="no"?>
<!DOCTYPE svg PUBLIC "-//W3C//DTD SVG 1.1//EN" "http://www.w3.org/Graphics/SVG/1.1/DTD/svg11.dtd">
<svg width="100%" height="100%" viewBox="0 0 1123 833" version="1.1" xmlns="http://www.w3.org/2000/svg" xmlns:xlink="http://www.w3.org/1999/xlink" xml:space="preserve" xmlns:serif="http://www.serif.com/" style="fill-rule:evenodd;clip-rule:evenodd;stroke-linejoin:round;stroke-miterlimit:2;">
    <g id="Layer1">
    </g>
    <g transform="matrix(7.11915,0,0,7.11915,188.604,19.5008)">
        <g transform="matrix(1,0,0,1,-1.6256,0.971558)">
            <path d="M99.942,13L98.077,10L97.077,10C93.645,11 89.848,12.388 85.847,12.388C81.846,12.388 74.442,10.333 74.442,10.333C69.412,8.169 66.44,7.678 61.936,7.678C57.461,7.678 53.24,8.68 49.502,10.393C45.766,8.68 41.543,7.718 37.068,7.718C32.565,7.718 29.163,8.393 23.558,10.677C23.558,10.677 17.159,12.606 13.158,12.606C9.157,12.606 5.359,11.239 1.928,10.278L0.057,13L0,13L0,83.251C3.846,84.361 6.332,85.164 9.758,85.164C13.288,85.164 17.654,84.27 23.375,81.875C27.141,80.281 30.159,80.051 34.628,80.051C40.021,80.051 45.061,82 49.362,84L49.605,84C53.908,82 58.947,80.004 64.34,80.004C68.632,80.004 72.722,80.772 76.374,82.25C80.749,84.438 85.129,85.405 89.989,85.405C93.375,85.405 95.191,84.691 99.999,83.594L99.999,13L99.942,13ZM35.136,77.026C30.822,77.026 26.755,77.907 23.117,79.507C18.344,81.28 14.69,82.62 11.281,82.62C7.972,82.621 5,81.783 2,80.669L2,15.281L1.927,11.156C5.358,12.156 9.156,13.368 13.157,13.368C17.158,13.368 24.038,11.484 24.038,11.484C28.862,9.501 32.544,8.642 37.048,8.642C41.342,8.643 45,9.6 49,11.185L49,80.483C45,78.625 40.202,77.026 35.136,77.026ZM98,11L98,81.015C94,82.116 91.746,82.735 88.475,82.735C83.784,82.735 80.5,81.438 75.423,79.321C71.897,77.838 68.003,77.018 63.859,77.018C59.2,77.018 55.001,78.376 51.001,80.039L51.001,10.762C54.001,9.437 58.055,8.695 61.956,8.695C66.46,8.695 69.902,9.542 75.131,11.645C75.131,11.645 81.851,13.368 85.853,13.368C89.855,13.368 93.646,12 97.077,11L98,11Z" style="fill:rgb(33,96,164);fill-rule:nonzero;stroke:rgb(33,96,164);stroke-width:0.14px;"/>
        </g>
        <g transform="matrix(0.140466,0,0,0.140466,-76.1836,-0.63111)">
            <g transform="matrix(200,0,0,200,600.384,379.778)">
                <path d="M0.321,-0.01C0.286,-0.01 0.258,-0.038 0.257,-0.073L0.257,-0.62C0.258,-0.67 0.276,-0.701 0.336,-0.71L0.334,-0.72C0.239,-0.702 0.136,-0.702 0.079,-0.696C-0.013,-0.686 -0.048,-0.648 -0.05,-0.601C-0.052,-0.547 -0.005,-0.505 0.057,-0.521L0.057,-0.527C0.004,-0.529 -0.019,-0.561 -0.016,-0.601C-0.013,-0.645 0.025,-0.663 0.085,-0.667L0.192,-0.673L0.192,-0.073C0.191,-0.038 0.163,-0.01 0.128,-0.01L0.115,-0.01L0.115,0L0.334,0L0.334,-0.01L0.321,-0.01Z" style="fill:rgb(33,96,164);fill-rule:nonzero;"/>
            </g>
            <g transform="matrix(200,0,0,200,674.984,379.778)">
                <path d="M0.796,-0.375C0.796,-0.375 0.786,-0.375 0.786,-0.375C0.786,-0.149 0.646,-0.016 0.448,-0.016C0.251,-0.016 0.12,-0.164 0.12,-0.353C0.12,-0.542 0.252,-0.684 0.43,-0.684C0.547,-0.684 0.666,-0.622 0.696,-0.505L0.705,-0.505L0.685,-0.646C0.623,-0.687 0.52,-0.714 0.429,-0.714C0.209,-0.714 0.045,-0.558 0.045,-0.351C0.045,-0.144 0.21,0.014 0.443,0.014C0.663,0.014 0.805,-0.116 0.796,-0.375Z" style="fill:rgb(33,96,164);fill-rule:nonzero;"/>
            </g>
        </g>
        <g transform="matrix(0.140466,0,0,0.140466,-29.2928,-0.0385185)">
            <g transform="matrix(200,0,0,200,600.384,379.778)">
                <path d="M0.581,-0.667C0.633,-0.736 0.699,-0.844 0.807,-0.846L0.807,-0.856C0.689,-0.866 0.612,-0.809 0.528,-0.69L0.336,-0.417L0.201,-0.629C0.186,-0.657 0.21,-0.69 0.237,-0.69L0.249,-0.69L0.249,-0.7L0.007,-0.7L0.007,-0.69L0.021,-0.69C0.063,-0.69 0.1,-0.662 0.122,-0.631L0.122,-0.631L0.292,-0.362L0.08,-0.062C0.02,0.022 -0.058,0.134 -0.172,0.139L-0.172,0.149C-0.048,0.165 0.041,0.099 0.13,-0.031L0.323,-0.314L0.477,-0.071C0.493,-0.043 0.468,-0.01 0.441,-0.01L0.429,-0.01L0.429,0L0.673,0L0.673,-0.01L0.659,-0.01C0.617,-0.01 0.58,-0.037 0.558,-0.068L0.365,-0.371L0.581,-0.667Z" style="fill:rgb(33,96,164);fill-rule:nonzero;"/>
            </g>
            <g transform="matrix(200,0,0,200,725.784,379.778)">
                <path d="M0.796,-0.375C0.796,-0.375 0.786,-0.375 0.786,-0.375C0.786,-0.149 0.646,-0.016 0.448,-0.016C0.251,-0.016 0.12,-0.164 0.12,-0.353C0.12,-0.542 0.252,-0.684 0.43,-0.684C0.547,-0.684 0.666,-0.622 0.696,-0.505L0.705,-0.505L0.685,-0.646C0.623,-0.687 0.52,-0.714 0.429,-0.714C0.209,-0.714 0.045,-0.558 0.045,-0.351C0.045,-0.144 0.21,0.014 0.443,0.014C0.663,0.014 0.805,-0.116 0.796,-0.375Z" style="fill:rgb(33,96,164);fill-rule:nonzero;"/>
            </g>
        </g>
    </g>
    <g id="Artboard1" transform="matrix(0.701305,0,0,0.925157,0,0)">
        <rect x="0" y="0" width="1600" height="900" style="fill:none;"/>
        <g transform="matrix(7.5073,0,0,5.69082,-360.315,250.899)">
            <path d="M93.504,17.723L93.477,17.723L93.504,17.723Z" style="fill:rgb(33,96,164);fill-rule:nonzero;"/>
        </g>
        <g transform="matrix(7.5073,0,0,5.69082,-360.315,250.899)">
            <path d="M93.41,17.723L93.301,17.723L93.41,17.723Z" style="fill:rgb(33,96,164);fill-rule:nonzero;"/>
        </g>
        <g transform="matrix(1.45664,0,0,1.18192,-33.7644,-73.3202)">
            <g transform="matrix(110,0,0,110,158.955,766.122)">
                <path d="M0.921,0.111C0.756,0.174 0.658,0.161 0.25,0.019C0.203,0.003 0.202,-0.022 0.202,-0.05L0.202,-0.627C0.203,-0.662 0.231,-0.69 0.266,-0.69L0.279,-0.69L0.279,-0.7L0.202,-0.7L0.202,-0.7L0.137,-0.7L0.137,-0.7L0.06,-0.7L0.06,-0.69L0.073,-0.69C0.108,-0.69 0.136,-0.662 0.137,-0.627L0.137,-0.627L0.137,-0.073C0.136,-0.037 0.107,-0.01 0.073,-0.01L0.06,-0.01L0.06,0C0.117,0.001 0.176,0.022 0.236,0.049C0.436,0.138 0.658,0.304 0.926,0.119L0.921,0.111Z" style="fill:rgb(33,96,164);fill-rule:nonzero;"/>
            </g>
            <g transform="matrix(110,0,0,110,204.165,766.122)">
                <path d="M0.523,-0.162C0.492,-0.085 0.451,-0.031 0.345,-0.031L0.202,-0.031L0.202,-0.33L0.372,-0.33C0.398,-0.329 0.419,-0.308 0.419,-0.281L0.419,-0.266L0.429,-0.266L0.429,-0.424L0.419,-0.424L0.419,-0.41C0.419,-0.383 0.398,-0.361 0.371,-0.36L0.371,-0.36L0.202,-0.36L0.202,-0.669L0.406,-0.669C0.437,-0.668 0.462,-0.642 0.462,-0.61L0.462,-0.592L0.472,-0.592L0.472,-0.672L0.472,-0.672L0.472,-0.689L0.472,-0.689L0.472,-0.718C0.453,-0.71 0.396,-0.7 0.353,-0.7L0.14,-0.7L0.14,-0.7L0.06,-0.7L0.061,-0.69L0.073,-0.69C0.106,-0.69 0.133,-0.665 0.137,-0.633L0.137,-0.073C0.136,-0.038 0.108,-0.01 0.073,-0.01L0.06,-0.01L0.06,0L0.475,0L0.533,-0.162L0.523,-0.162Z" style="fill:rgb(33,96,164);fill-rule:nonzero;"/>
            </g>
            <g transform="matrix(110,0,0,110,264.335,766.122)">
                <path d="M0.266,-0.01C0.231,-0.01 0.203,-0.038 0.202,-0.073L0.202,-0.628C0.203,-0.662 0.231,-0.69 0.266,-0.69L0.279,-0.69L0.279,-0.7L0.199,-0.7L0.199,-0.7L0.14,-0.7L0.14,-0.7L0.06,-0.7L0.06,-0.69L0.073,-0.69C0.108,-0.69 0.136,-0.662 0.137,-0.628L0.137,-0.073C0.136,-0.038 0.108,-0.01 0.073,-0.01L0.06,-0.01L0.06,0L0.279,0L0.279,-0.01L0.266,-0.01ZM0.573,-0.051L0.3,-0.372L0.535,-0.644C0.561,-0.673 0.6,-0.691 0.643,-0.691L0.647,-0.691L0.647,-0.7L0.436,-0.7L0.436,-0.691L0.446,-0.691C0.473,-0.691 0.487,-0.666 0.47,-0.644L0.234,-0.348L0.475,-0.057C0.521,-0.003 0.597,0 0.625,0L0.668,0L0.668,-0.01C0.627,-0.011 0.601,-0.024 0.573,-0.051L0.573,-0.051Z" style="fill:rgb(33,96,164);fill-rule:nonzero;"/>
            </g>
            <g transform="matrix(110,0,0,110,336.605,766.122)">
                <path d="M0.478,-0.701C0.478,-0.701 0.14,-0.701 0.14,-0.701C0.097,-0.701 0.039,-0.711 0.02,-0.719L0.02,-0.593L0.03,-0.594L0.03,-0.611C0.03,-0.644 0.055,-0.67 0.087,-0.671L0.277,-0.671L0.277,-0.071C0.275,-0.037 0.247,-0.01 0.213,-0.01L0.2,-0.01L0.2,0L0.419,0L0.419,-0.01L0.406,-0.01C0.371,-0.01 0.343,-0.038 0.342,-0.072L0.342,-0.671L0.532,-0.671C0.563,-0.67 0.589,-0.644 0.589,-0.611L0.589,-0.594L0.599,-0.593L0.599,-0.719C0.58,-0.711 0.521,-0.701 0.478,-0.701Z" style="fill:rgb(33,96,164);fill-rule:nonzero;"/>
            </g>
            <g transform="matrix(110,0,0,110,403.485,766.122)">
                <path d="M0.279,-0.01L0.266,-0.01C0.231,-0.01 0.203,-0.038 0.202,-0.073L0.202,-0.628C0.203,-0.662 0.231,-0.69 0.266,-0.69L0.279,-0.69L0.279,-0.7L0.199,-0.7L0.199,-0.7L0.14,-0.7L0.14,-0.7L0.06,-0.7L0.06,-0.69L0.073,-0.69C0.108,-0.69 0.136,-0.662 0.137,-0.628L0.137,-0.073C0.136,-0.038 0.108,-0.01 0.073,-0.01L0.06,-0.01L0.06,0L0.279,0L0.279,-0.01Z" style="fill:rgb(33,96,164);fill-rule:nonzero;"/>
            </g>
            <g transform="matrix(110,0,0,110,438.465,766.122)">
                <path d="M0.424,-0.714C0.197,-0.714 0.04,-0.568 0.04,-0.35C0.04,-0.132 0.197,0.014 0.424,0.014C0.651,0.014 0.809,-0.132 0.809,-0.35C0.809,-0.568 0.651,-0.714 0.424,-0.714ZM0.424,-0.016C0.24,-0.016 0.117,-0.15 0.117,-0.35C0.117,-0.55 0.24,-0.684 0.424,-0.684C0.608,-0.684 0.731,-0.55 0.731,-0.35C0.731,-0.15 0.608,-0.016 0.424,-0.016Z" style="fill:rgb(33,96,164);fill-rule:nonzero;"/>
            </g>
            <g transform="matrix(110,0,0,110,529.545,766.122)">
                <path d="M0.796,-0.7L0.59,-0.7L0.59,-0.69L0.609,-0.69C0.643,-0.69 0.67,-0.663 0.671,-0.629L0.671,-0.629L0.671,-0.133L0.127,-0.714L0.126,-0.715L0.116,-0.715C0.116,-0.715 0.125,-0.658 0.125,-0.59L0.125,-0.071C0.125,-0.037 0.097,-0.01 0.064,-0.01L0.045,-0.01L0.045,0L0.251,0L0.251,-0.01L0.232,-0.01C0.199,-0.01 0.172,-0.037 0.171,-0.07L0.17,-0.568L0.716,0.014L0.725,0.014C0.725,0.014 0.716,-0.049 0.716,-0.114L0.716,-0.63C0.717,-0.663 0.744,-0.69 0.778,-0.69C0.778,-0.69 0.796,-0.69 0.796,-0.69L0.796,-0.7Z" style="fill:rgb(33,96,164);fill-rule:nonzero;"/>
            </g>
            <g transform="matrix(110,0,0,110,618.205,766.122)">
                <path d="M0.715,-0.01C0.684,-0.01 0.647,-0.028 0.627,-0.073L0.359,-0.714L0.35,-0.714C0.35,-0.692 0.313,-0.611 0.313,-0.611L0.087,-0.073C0.066,-0.028 0.029,-0.01 -0.001,-0.01L-0.01,-0.01L-0.01,0L0.191,0L0.191,-0.01L0.182,-0.01C0.157,-0.01 0.13,-0.032 0.144,-0.072L0.211,-0.243L0.481,-0.243L0.545,-0.073C0.559,-0.033 0.532,-0.01 0.507,-0.01L0.498,-0.01L0.498,0L0.723,0L0.723,-0.01L0.715,-0.01ZM0.223,-0.273L0.349,-0.594L0.469,-0.273L0.223,-0.273Z" style="fill:rgb(33,96,164);fill-rule:nonzero;"/>
            </g>
            <g transform="matrix(110,0,0,110,695.425,766.122)">
                <path d="M0.552,-0.086C0.513,-0.128 0.427,-0.251 0.427,-0.251C0.407,-0.278 0.377,-0.311 0.355,-0.321C0.451,-0.321 0.525,-0.415 0.525,-0.512C0.525,-0.629 0.451,-0.7 0.33,-0.7L0.14,-0.7L0.14,-0.7L0.06,-0.7L0.06,-0.69L0.073,-0.69C0.108,-0.69 0.136,-0.662 0.137,-0.627L0.137,-0.627L0.137,-0.072C0.136,-0.038 0.108,-0.01 0.073,-0.01L0.06,-0.01L0.06,0L0.279,0L0.278,-0.01L0.266,-0.01C0.231,-0.01 0.202,-0.038 0.202,-0.073L0.202,-0.073L0.202,-0.669C0.215,-0.668 0.275,-0.671 0.326,-0.668C0.401,-0.664 0.448,-0.606 0.45,-0.516C0.451,-0.494 0.448,-0.47 0.444,-0.456C0.415,-0.366 0.34,-0.353 0.288,-0.352C0.258,-0.351 0.235,-0.352 0.235,-0.352L0.235,-0.342C0.271,-0.342 0.301,-0.308 0.327,-0.275C0.334,-0.265 0.447,-0.101 0.458,-0.088C0.49,-0.05 0.54,0 0.633,0L0.688,0L0.688,-0.01C0.629,-0.011 0.592,-0.042 0.552,-0.086L0.552,-0.086Z" style="fill:rgb(33,96,164);fill-rule:nonzero;"/>
            </g>
            <g transform="matrix(110,0,0,110,769.895,766.122)">
                <path d="M0.279,-0.01L0.266,-0.01C0.231,-0.01 0.203,-0.038 0.202,-0.073L0.202,-0.628C0.203,-0.662 0.231,-0.69 0.266,-0.69L0.279,-0.69L0.279,-0.7L0.199,-0.7L0.199,-0.7L0.14,-0.7L0.14,-0.7L0.06,-0.7L0.06,-0.69L0.073,-0.69C0.108,-0.69 0.136,-0.662 0.137,-0.628L0.137,-0.073C0.136,-0.038 0.108,-0.01 0.073,-0.01L0.06,-0.01L0.06,0L0.279,0L0.279,-0.01Z" style="fill:rgb(33,96,164);fill-rule:nonzero;"/>
            </g>
            <g transform="matrix(110,0,0,110,807.075,766.122)">
                <path d="M0.664,-0.7L0.664,-0.7L0.622,-0.7L0.622,-0.7L0.55,-0.7L0.55,-0.69L0.566,-0.69C0.595,-0.69 0.618,-0.67 0.619,-0.642L0.619,-0.247C0.619,-0.109 0.53,-0.017 0.396,-0.017C0.269,-0.017 0.184,-0.115 0.184,-0.26L0.184,-0.642C0.185,-0.67 0.208,-0.69 0.237,-0.69L0.253,-0.69L0.253,-0.7L0.05,-0.7L0.05,-0.69L0.066,-0.69C0.095,-0.69 0.119,-0.669 0.119,-0.64L0.119,-0.64L0.119,-0.246C0.119,-0.09 0.23,0.014 0.396,0.014C0.558,0.014 0.666,-0.091 0.666,-0.247L0.666,-0.643C0.668,-0.67 0.691,-0.69 0.719,-0.69L0.735,-0.69L0.735,-0.7L0.664,-0.7Z" style="fill:rgb(33,96,164);fill-rule:nonzero;"/>
            </g>
            <g transform="matrix(110,0,0,110,884.625,766.122)">
                <path d="M0.9,-0.01C0.865,-0.01 0.833,-0.033 0.827,-0.073L0.75,-0.714L0.741,-0.714L0.468,-0.111L0.189,-0.714L0.179,-0.714L0.104,-0.073C0.099,-0.033 0.067,-0.01 0.031,-0.01L0.015,-0.01L0.015,0L0.209,0L0.209,-0.009L0.194,-0.009C0.172,-0.009 0.155,-0.031 0.155,-0.052L0.155,-0.057L0.198,-0.541L0.454,0.014L0.464,0.014C0.47,-0.027 0.498,-0.088 0.498,-0.088L0.708,-0.555L0.753,-0.057C0.753,-0.055 0.753,-0.054 0.753,-0.052C0.753,-0.031 0.736,-0.009 0.714,-0.009L0.699,-0.009L0.699,0L0.916,0L0.916,-0.01L0.9,-0.01Z" style="fill:rgb(33,96,164);fill-rule:nonzero;"/>
            </g>
        </g>
    </g>
</svg>
