<?xml version="1.0" encoding="UTF-8" standalone="no"?>
<!DOCTYPE svg PUBLIC "-//W3C//DTD SVG 1.1//EN" "http://www.w3.org/Graphics/SVG/1.1/DTD/svg11.dtd">
<svg width="100%" height="100%" viewBox="0 0 1123 833" version="1.1" xmlns="http://www.w3.org/2000/svg" xmlns:xlink="http://www.w3.org/1999/xlink" xml:space="preserve" xmlns:serif="http://www.serif.com/" style="fill-rule:evenodd;clip-rule:evenodd;stroke-linejoin:round;stroke-miterlimit:1.41421;">
    <g id="Artboard1" transform="matrix(0.701305,0,0,0.925157,0,0)">
        <rect x="0" y="0" width="1600" height="900" style="fill:none;"/>
        <g transform="matrix(1.42591,0,0,1.0809,-134.546,77.6001)">
            <text x="217.834px" y="692.476px" style="font-family:'Luminari-Regular', 'Luminari';font-size:144px;fill:rgb(33,96,164);">L<tspan x="300.346px 364.282px " y="692.476px 692.476px ">ek</tspan></text>
            <text x="435.562px" y="692.476px" style="font-family:'Luminari-Regular', 'Luminari';font-size:144px;fill:rgb(33,96,164);">t</text>
            <text x="503.098px" y="692.476px" style="font-family:'Luminari-Regular', 'Luminari';font-size:144px;fill:rgb(33,96,164);">i<tspan x="539.53px 619.45px 706.57px " y="692.476px 692.476px 692.476px ">ona</tspan></text>
            <text x="782.89px" y="692.476px" style="font-family:'Luminari-Regular', 'Luminari';font-size:144px;fill:rgb(33,96,164);">r</text>
            <text x="846.97px" y="692.476px" style="font-family:'Luminari-Regular', 'Luminari';font-size:144px;fill:rgb(33,96,164);">i</text>
            <text x="883.402px" y="692.476px" style="font-family:'Luminari-Regular', 'Luminari';font-size:144px;fill:rgb(33,96,164);">u</text>
            <text x="965.194px" y="692.476px" style="font-family:'Luminari-Regular', 'Luminari';font-size:144px;fill:rgb(33,96,164);">m</text>
        </g>
        <g transform="matrix(7.5073,0,0,5.69082,-360.315,250.899)">
            <path d="M93.504,17.723L93.477,17.723L93.504,17.723Z" style="fill:rgb(33,96,164);fill-rule:nonzero;"/>
        </g>
        <g transform="matrix(7.5073,0,0,5.69082,-360.315,250.899)">
            <path d="M93.41,17.723L93.301,17.723L93.41,17.723Z" style="fill:rgb(33,96,164);fill-rule:nonzero;"/>
        </g>
        <g transform="matrix(12.5424,0,0,9.50759,174.959,-20.1103)">
            <path d="M95.809,8.832C95.45,8.562 94.985,8.48 94.551,8.609C94.434,8.644 82.66,12.113 71.559,12.113C60.856,12.113 52.399,19.515 49.621,22.273C46.391,19.632 36.312,12.113 26.32,12.113C14.371,12.113 5.078,8.679 4.988,8.644C3.879,8.413 3.238,8.859 3.062,9.976L3.062,66.484C3.062,67.269 3.695,67.906 4.48,67.91C4.574,67.91 13.926,67.961 25.859,67.961C32.414,67.961 38.98,68.949 45.359,70.414C46.672,70.714 48.352,71.523 49.723,71.476C50.953,71.476 52.383,70.664 53.543,70.343C59.242,68.773 65.184,67.961 71.094,67.961C82.875,67.961 94.844,67.91 94.961,67.91C95.746,67.906 96.383,67.269 96.383,66.484L96.383,9.976C96.383,9.523 96.168,9.101 95.809,8.831L95.809,8.832ZM25.86,62.258C16.645,62.258 8.969,62.23 5.915,62.218L5.915,52.808C9.302,53.879 16.778,55.851 25.86,55.851C33.809,55.851 42.258,60.355 48.321,65.164C41.231,63.398 33.173,62.258 25.86,62.258L25.86,62.258ZM48.286,61.64C44.118,58.48 35.087,53.621 25.864,53.621C16.348,53.621 8.509,51.293 5.919,50.429L5.919,12.574C9.341,13.625 16.985,15.586 26.329,15.586C35.095,15.586 44.395,22.363 47.606,24.934C47.883,25.156 48.122,25.352 48.305,25.504L48.286,61.64ZM93.532,62.215L93.505,62.215L93.477,62.215L93.411,62.215L93.415,62.215L93.294,62.215L93.305,62.215L71.098,62.258C64.563,62.258 57.41,63.328 51.145,65.179C56.247,60.152 63.75,55.847 71.098,55.847C80.458,55.847 89.7,53.699 93.536,52.691L93.536,62.215L93.532,62.215ZM92.38,50.047C92.509,50.011 92.677,49.965 92.845,49.922C92.641,49.972 92.489,50.015 92.38,50.047ZM93.532,49.734C93.466,49.754 93.407,49.769 93.345,49.785C93.462,49.754 93.532,49.734 93.532,49.734C90.43,50.578 80.696,53 71.094,53C62.176,53 54.813,58.371 51.149,61.652L51.149,24.785C51.297,24.633 51.493,24.437 51.719,24.211C54.321,21.676 62.098,14.957 71.559,14.957C80.555,14.957 89.715,12.84 93.532,11.84L93.532,49.734Z" style="fill:rgb(33,96,164);fill-rule:nonzero;"/>
        </g>
    </g>
</svg>
